<svg width="37" height="32" viewBox="0 0 56 49" fill="none" xmlns="http://www.w3.org/2000/svg">
<path d="M51.6682 0.926575H4.5283C2.35867 0.926575 0.599976 2.68352 0.599976 4.85316V44.1433C0.599976 46.3112 2.35867 48.0717 4.5283 48.0717H51.6682C53.8343 48.0717 55.6 46.3095 55.6 44.1433V4.85316C55.6 2.68352 53.8343 0.926575 51.6682 0.926575ZM13.3688 3.8763C14.4518 3.8763 15.3329 4.75042 15.3329 5.84046C15.3329 6.92528 14.4518 7.7994 13.3688 7.7994C12.2787 7.7994 11.3994 6.92528 11.3994 5.84046C11.3994 4.75042 12.2787 3.8763 13.3688 3.8763ZM7.4728 3.8763C8.55762 3.8763 9.43522 4.75042 9.43522 5.84046C9.43522 6.92528 8.55762 7.7994 7.4728 7.7994C6.38624 7.7994 5.5069 6.92528 5.5069 5.84046C5.5069 4.75042 6.38624 3.8763 7.4728 3.8763ZM51.6682 44.1451H4.5283V10.7909H51.6682V44.1451Z" fill="#D7AF70"/>
<path d="M22.6184 18.8635L10.0029 13.0946V15.8754L19.7592 20.0458V20.0998L10.0029 24.2684V27.0475L22.6184 21.2786V18.8635Z" fill="#D7AF70"/>
<path d="M35.4291 18.7451H28.558V21.3953H35.4291V18.7451Z" fill="#D7AF70"/>
</svg>